PathFileType	4	(X/Y/Z)	/tmp/tmp8ooq684z//results/MarkerData/rotated_Sprint_08100001.trc
DataRate	CameraRate	NumFrames	NumMarkers	Units	OrigDataRate	OrigDataStartFrame	OrigNumFrames
200	200	9	46	m	200	731	1171
Frame#	Time	C7			L.ASIS			L.PSIS			L_5meta			L_Shoulder			L_ankle			L_calc			L_elbow_lat			L_elbow_med			L_forearm			L_humerus			L_knee			L_sh2			L_sh3			L_shank_antsup			L_thigh1			L_thigh2			L_thigh3			L_thigh4			L_toe			L_wrist_radius			L_wrist_ulna			R_Shoulder			R_elbow_lat			R_elbow_med			R_forearm			R_humerus			R_wrist_radius			R_wrist_ulna			Sternum			r.ASIS			r.PSIS			r_5meta			r_ankle			r_calc			r_knee			r_sh2			r_sh3			r_sh4			r_shank_antsup			r_thigh1			r_thigh2			r_thigh3			r_thigh4			r_thigh5			r_toe		
		X1	Y1	Z1	X2	Y2	Z2	X3	Y3	Z3	X4	Y4	Z4	X5	Y5	Z5	X6	Y6	Z6	X7	Y7	Z7	X8	Y8	Z8	X9	Y9	Z9	X10	Y10	Z10	X11	Y11	Z11	X12	Y12	Z12	X13	Y13	Z13	X14	Y14	Z14	X15	Y15	Z15	X16	Y16	Z16	X17	Y17	Z17	X18	Y18	Z18	X19	Y19	Z19	X20	Y20	Z20	X21	Y21	Z21	X22	Y22	Z22	X23	Y23	Z23	X24	Y24	Z24	X25	Y25	Z25	X26	Y26	Z26	X27	Y27	Z27	X28	Y28	Z28	X29	Y29	Z29	X30	Y30	Z30	X31	Y31	Z31	X32	Y32	Z32	X33	Y33	Z33	X34	Y34	Z34	X35	Y35	Z35	X36	Y36	Z36	X37	Y37	Z37	X38	Y38	Z38	X39	Y39	Z39	X40	Y40	Z40	X41	Y41	Z41	X42	Y42	Z42	X43	Y43	Z43	X44	Y44	Z44	X45	Y45	Z45	X46	Y46	Z46

732	3.655	0.793723	1.55753	-0.326287	0.86375	1.01827	-0.450584	0.660737	1.07385	-0.363121	0.129449	0.643673	-0.443385	0.901077	1.50339	-0.494516	0.28895	0.702043	-0.44967	0.318155	0.759212	-0.39971	0.745759	1.21808	-0.638858	0.686767	1.1885	-0.565817	0.862292	1.097	-0.582553	0.822243	1.27353	-0.589604	0.658673	0.533315	-0.512993	0.581185	0.619898	-0.520348	0.469859	0.661914	-0.489653	0.544478	0.538054	-0.502711	0.811083	0.705761	-0.508863	0.765524	0.573212	-0.500513	0.70174	0.745879	-0.534234	0.661492	0.614287	-0.512025	0.128725	0.604932	-0.373498	0.938733	1.0561	-0.502806	0.909686	1.0092	-0.54911	0.811316	1.51397	-0.115569	0.507708	1.34967	-0.0822588	0.512127	1.3202	-0.160397	0.586086	1.18921	-0.0480121	0.647355	1.35783	-0.067449	0.627534	1.07828	-0.0456373	0.575431	1.06678	-0.0447627	0.929768	1.43486	-0.285656	0.859013	1.01155	-0.189808	0.657916	1.06074	-0.263322	1.20802	0.029802	-0.260822	1.08667	0.115993	-0.270551	1.02813	0.102851	-0.352899	0.973784	0.545653	-0.197246	1.05391	0.326273	-0.219722	0.95194	0.415273	-0.187135	0.973444	0.310106	-0.230489	1.02227	0.438633	-0.194579	0.956939	0.771485	-0.153994	0.994399	0.666127	-0.180241	0.967491	0.618275	-0.16183	0.856878	0.72611	-0.128161	0.900487	0.625932	-0.172174	1.25621	0.0826597	-0.294385
733	3.66	0.792957	1.55506	-0.324128	0.864773	1.01737	-0.451257	0.661936	1.07071	-0.363762	0.151998	0.65785	-0.446109	0.898009	1.50178	-0.494988	0.312516	0.712379	-0.450803	0.343078	0.76831	-0.400163	0.73803	1.2188	-0.638849	0.678884	1.19071	-0.565233	0.846536	1.08673	-0.588738	0.81614	1.27345	-0.591199	0.673337	0.529446	-0.516855	0.600217	0.61887	-0.52342	0.4909	0.664713	-0.492134	0.56051	0.538709	-0.506184	0.820335	0.704878	-0.510784	0.778305	0.571001	-0.50418	0.710138	0.742482	-0.536073	0.673327	0.610053	-0.51571	0.150252	0.618931	-0.377696	0.920776	1.03742	-0.511743	0.887349	0.994215	-0.559403	0.812822	1.50834	-0.113067	0.515047	1.329	-0.0786843	0.520139	1.30015	-0.157566	0.602462	1.17238	-0.0476337	0.65424	1.34313	-0.0652548	0.65044	1.0641	-0.0469868	0.598978	1.04954	-0.0457429	0.929622	1.43247	-0.286723	0.859356	1.0091	-0.190611	0.658801	1.05836	-0.263133	1.17646	0.024027	-0.260412	1.06306	0.105958	-0.272112	1.00374	0.0982221	-0.354493	0.960932	0.539118	-0.197046	1.03507	0.315499	-0.219808	0.934793	0.408149	-0.190949	0.954736	0.302012	-0.234003	1.00606	0.428846	-0.195154	0.950062	0.765597	-0.149256	0.985091	0.660164	-0.179555	0.95709	0.612214	-0.16268	0.848026	0.72191	-0.130431	0.890316	0.62101	-0.17308	1.23077	0.0665046	-0.297544
734	3.665	0.791925	1.5518	-0.322158	0.865833	1.01608	-0.451937	0.662929	1.06716	-0.364485	0.17568	0.669465	-0.448821	0.894504	1.49975	-0.495605	0.336558	0.72097	-0.452143	0.368139	0.775844	-0.40076	0.730156	1.21941	-0.639134	0.671069	1.19279	-0.564964	0.829943	1.07778	-0.595334	0.809836	1.27308	-0.59274	0.688789	0.525776	-0.520842	0.619671	0.61745	-0.527005	0.512131	0.666738	-0.494958	0.577388	0.537917	-0.509196	0.830191	0.704066	-0.512573	0.791737	0.569	-0.507577	0.719161	0.739045	-0.537796	0.686137	0.605865	-0.519766	0.173025	0.632417	-0.383487	0.901941	1.02098	-0.521285	0.86373	0.981426	-0.569735	0.814318	1.50244	-0.110529	0.523436	1.30756	-0.0744058	0.528917	1.27996	-0.154036	0.620163	1.15557	-0.0471492	0.662001	1.32777	-0.0627595	0.674877	1.05067	-0.0484384	0.624297	1.03286	-0.0468879	0.929815	1.43005	-0.287873	0.859541	1.00656	-0.191285	0.659178	1.0559	-0.263181	1.14114	0.0271696	-0.260905	1.03523	0.0995128	-0.27763	0.973218	0.0953462	-0.357548	0.948466	0.532681	-0.196367	1.01562	0.305858	-0.219806	0.917968	0.40234	-0.193667	0.935484	0.294908	-0.235394	0.990111	0.420071	-0.195382	0.943071	0.759623	-0.144096	0.976155	0.654546	-0.178421	0.947113	0.606645	-0.163872	0.839254	0.717824	-0.132728	0.880544	0.616226	-0.173823	1.19901	0.0563548	-0.305491
735	3.67	0.790659	1.54762	-0.320535	0.866772	1.01419	-0.45251	0.663867	1.06344	-0.365261	0.200452	0.678428	-0.451633	0.890781	1.4974	-0.496339	0.36092	0.727968	-0.453724	0.393171	0.781906	-0.401624	0.721628	1.22019	-0.640067	0.663014	1.19491	-0.56522	0.812661	1.07073	-0.602227	0.80342	1.27242	-0.594004	0.705123	0.5223	-0.524831	0.639642	0.615729	-0.530806	0.533639	0.667923	-0.497907	0.59519	0.537064	-0.512334	0.840631	0.703402	-0.51402	0.806081	0.567275	-0.510755	0.72884	0.735844	-0.540176	0.699956	0.601787	-0.524069	0.194749	0.641962	-0.386566	0.882315	1.00761	-0.531209	0.839764	0.971358	-0.579641	0.815682	1.49632	-0.108122	0.532788	1.28567	-0.0694306	0.538364	1.25962	-0.150069	0.639299	1.13907	-0.0464261	0.670726	1.31175	-0.0602601	0.700875	1.03843	-0.0500229	0.651611	1.01715	-0.0483	0.930117	1.42756	-0.289139	0.859304	1.00393	-0.191966	0.658717	1.05343	-0.26359	1.10399	0.0310939	-0.263692	1.00133	0.0975847	-0.287721	0.935097	0.0869087	-0.364386	0.936535	0.526252	-0.195405	0.995279	0.297	-0.2215	0.902375	0.396997	-0.193553	0.915143	0.289214	-0.235023	0.975175	0.411708	-0.19562	0.936056	0.753546	-0.14007	0.967874	0.64895	-0.17653	0.937391	0.601485	-0.164928	0.830682	0.713758	-0.134329	0.87121	0.611603	-0.174556	1.16155	0.0529384	-0.314651
736	3.675	0.789352	1.54293	-0.318629	0.867487	1.01186	-0.452722	0.664646	1.05974	-0.366194	0.225159	0.685023	-0.455125	0.887002	1.49482	-0.497133	0.38543	0.733196	-0.455427	0.418034	0.78653	-0.402719	0.711967	1.2215	-0.641828	0.654218	1.19715	-0.566025	0.794969	1.06603	-0.609196	0.796798	1.27162	-0.594739	0.722328	0.518965	-0.528726	0.659797	0.613702	-0.534856	0.555659	0.668226	-0.500743	0.613971	0.536296	-0.516127	0.851456	0.702944	-0.515163	0.821539	0.565663	-0.513889	0.739089	0.732465	-0.54279	0.715006	0.597497	-0.528426	0.217371	0.648236	-0.38947	0.862353	0.997307	-0.541396	0.81605	0.964132	-0.589145	0.816895	1.49007	-0.105836	0.543126	1.26335	-0.0639489	0.548576	1.23916	-0.145818	0.65999	1.12325	-0.0455685	0.680712	1.2955	-0.0586076	0.728399	1.02781	-0.0518638	0.681103	1.00296	-0.0498211	0.930508	1.425	-0.290612	0.858434	1.00113	-0.192593	0.657312	1.05086	-0.264184	1.06525	0.0324993	-0.267812	0.961929	0.0968391	-0.298728	0.894433	0.0761205	-0.376488	0.925421	0.520517	-0.19533	0.974681	0.288697	-0.22727	0.890125	0.391951	-0.191147	0.89381	0.28629	-0.235985	0.963107	0.403107	-0.198021	0.929536	0.748296	-0.13736	0.960505	0.643439	-0.173574	0.928125	0.59696	-0.166002	0.822704	0.709808	-0.135837	0.862782	0.60753	-0.176164	1.12196	0.051181	-0.321935
737	3.68	0.787804	1.53798	-0.316318	0.86783	1.00914	-0.452329	0.664933	1.05593	-0.367409	0.249713	0.689251	-0.459227	0.88335	1.4921	-0.497963	0.409933	0.736643	-0.457261	0.442557	0.789567	-0.404102	0.701386	1.22361	-0.643958	0.64432	1.19991	-0.56757	0.777158	1.06382	-0.616189	0.789799	1.2709	-0.59505	0.740367	0.515807	-0.532336	0.680038	0.611423	-0.539272	0.577792	0.667618	-0.503553	0.633286	0.534781	-0.520638	0.862582	0.702843	-0.515773	0.838067	0.564342	-0.516916	0.750029	0.729022	-0.545335	0.731403	0.592962	-0.53262	0.240986	0.652279	-0.393066	0.842643	0.990142	-0.55149	0.792343	0.960143	-0.598303	0.817944	1.48382	-0.103535	0.554639	1.24068	-0.0581447	0.559677	1.21865	-0.141171	0.682159	1.10842	-0.0447701	0.692377	1.27918	-0.0575014	0.757286	1.01923	-0.0540491	0.712397	0.990532	-0.0515058	0.931068	1.42224	-0.292389	0.856834	0.998113	-0.192806	0.654804	1.04829	-0.265066	1.0264	0.0327712	-0.272924	0.92265	0.0959011	-0.308965	0.855534	0.0708871	-0.387286	0.915783	0.516268	-0.197248	0.953851	0.281272	-0.238234	0.881236	0.387631	-0.190466	0.871865	0.286307	-0.241629	0.953664	0.394806	-0.20471	0.923662	0.744031	-0.135643	0.954039	0.638698	-0.170742	0.919737	0.593504	-0.167895	0.815725	0.706841	-0.138022	0.855338	0.604347	-0.178391	1.08317	0.0503015	-0.327407
738	3.685	0.786183	1.53306	-0.313729	0.867725	1.00599	-0.451161	0.664374	1.0523	-0.369088	0.274264	0.691013	-0.463691	0.880018	1.48934	-0.498831	0.434372	0.738302	-0.459214	0.466506	0.7908	-0.405876	0.68981	1.22669	-0.646344	0.633777	1.20356	-0.569798	0.759451	1.06397	-0.622991	0.782141	1.27047	-0.595388	0.759355	0.51284	-0.535435	0.700688	0.608704	-0.544188	0.599725	0.666111	-0.506373	0.652645	0.532138	-0.525399	0.874365	0.703225	-0.515596	0.855888	0.564158	-0.518285	0.761864	0.725758	-0.547707	0.749072	0.588538	-0.536438	0.264837	0.654004	-0.397131	0.823056	0.986055	-0.560783	0.769746	0.959274	-0.606673	0.818751	1.4777	-0.100948	0.567621	1.21779	-0.0519342	0.571798	1.1979	-0.135762	0.70571	1.09498	-0.0440674	0.705773	1.2631	-0.0561286	0.787142	1.01306	-0.0566799	0.745201	0.980562	-0.0534717	0.931966	1.41942	-0.294233	0.854164	0.994955	-0.192131	0.651573	1.04607	-0.266475	0.987596	0.0331627	-0.277361	0.886776	0.0963386	-0.317544	0.818665	0.0708078	-0.39581	0.907664	0.513518	-0.201212	0.932199	0.276049	-0.251541	0.872017	0.386588	-0.195335	0.849672	0.28779	-0.249998	0.943682	0.387643	-0.21433	0.91774	0.740965	-0.135432	0.947216	0.635574	-0.171173	0.911753	0.591112	-0.170903	0.809051	0.705387	-0.140382	0.847667	0.60219	-0.180151	1.04525	0.0498571	-0.330915
739	3.69	0.784799	1.52888	-0.312165	0.867314	1.0025	-0.449155	0.663273	1.04897	-0.371416	0.298666	0.690316	-0.46844	0.877056	1.48671	-0.499846	0.458332	0.738212	-0.461453	0.489653	0.790292	-0.407879	0.677714	1.231	-0.648644	0.622606	1.20836	-0.572456	0.7421	1.06647	-0.628781	0.773275	1.27072	-0.596398	0.779674	0.510444	-0.537609	0.722466	0.604718	-0.549159	0.621654	0.663924	-0.509282	0.672645	0.528875	-0.52909	0.887074	0.70454	-0.514398	0.874892	0.56589	-0.517162	0.774339	0.723074	-0.549773	0.767869	0.584694	-0.539673	0.288434	0.653331	-0.401437	0.803899	0.985065	-0.568995	0.748306	0.961145	-0.61413	0.81954	1.47187	-0.0980233	0.582409	1.19486	-0.0454825	0.584936	1.17696	-0.129929	0.730576	1.08336	-0.0437661	0.720659	1.24815	-0.0551323	0.817618	1.00979	-0.0597504	0.779009	0.973996	-0.0555303	0.933155	1.41667	-0.295777	0.850286	0.992128	-0.189801	0.648443	1.04456	-0.268701	0.948665	0.0337592	-0.280569	0.851834	0.0981467	-0.324509	0.783478	0.0731129	-0.403685	0.900164	0.511602	-0.206387	0.911162	0.274427	-0.260481	0.859442	0.389943	-0.203479	0.829118	0.29019	-0.254773	0.93068	0.385016	-0.22339	0.910657	0.738899	-0.136935	0.938499	0.633593	-0.174756	0.902818	0.589497	-0.174079	0.80153	0.704791	-0.141494	0.838561	0.601158	-0.182077	1.00727	0.0496326	-0.333246
740	3.695	0.784002	1.5266	-0.311593	0.866785	0.998672	-0.446297	0.662354	1.04646	-0.374302	0.322487	0.68697	-0.473393	0.874573	1.48457	-0.500907	0.48103	0.736686	-0.464037	0.511544	0.788427	-0.40989	0.665583	1.23689	-0.650685	0.610898	1.21465	-0.575178	0.724985	1.07119	-0.633676	0.763051	1.27217	-0.598416	0.80184	0.50919	-0.538492	0.744394	0.600708	-0.553294	0.6435	0.661107	-0.513295	0.694303	0.525896	-0.530772	0.900581	0.707232	-0.512059	0.89442	0.569028	-0.51409	0.787708	0.721136	-0.551454	0.78766	0.581877	-0.54212	0.311591	0.649853	-0.405993	0.785164	0.986967	-0.576191	0.727996	0.965514	-0.620585	0.820352	1.46675	-0.0951795	0.599806	1.17265	-0.0389609	0.599434	1.15624	-0.12377	0.756547	1.07421	-0.0440694	0.736423	1.236	-0.0551294	0.848166	1.00986	-0.0632392	0.813287	0.971295	-0.0576355	0.933624	1.41371	-0.297155	0.845431	0.990156	-0.185535	0.645276	1.04353	-0.271595	0.909753	0.0344437	-0.283348	0.816258	0.100633	-0.32982	0.74762	0.0762248	-0.409375	0.891462	0.510033	-0.211284	0.891111	0.275523	-0.264096	0.841875	0.39454	-0.210585	0.809667	0.292656	-0.257122	0.913493	0.387619	-0.229792	0.902016	0.737108	-0.138766	0.92833	0.631718	-0.177905	0.89233	0.587913	-0.176842	0.792691	0.704244	-0.142555	0.828001	0.60063	-0.184913	0.968978	0.0495246	-0.335542
